<svg width="1191" height="839" viewBox="0 0 1191 839" fill="none" xmlns="http://www.w3.org/2000/svg">
<rect width="1191" height="839" fill="#CDCDCD"/>
<path d="M623.5 447.5H567.5V391.5H623.5M623.5 383.5H567.5C565.378 383.5 563.343 384.343 561.843 385.843C560.343 387.343 559.5 389.378 559.5 391.5V447.5C559.5 449.622 560.343 451.657 561.843 453.157C563.343 454.657 565.378 455.5 567.5 455.5H623.5C625.622 455.5 627.657 454.657 629.157 453.157C630.657 451.657 631.5 449.622 631.5 447.5V391.5C631.5 389.378 630.657 387.343 629.157 385.843C627.657 384.343 625.622 383.5 623.5 383.5ZM603.34 420.66L592.34 434.82L584.5 425.38L573.5 439.5H617.5L603.34 420.66Z" fill="#7F7F7F"/>
</svg>
