<svg width="28" height="29" viewBox="0 0 28 29" fill="none" xmlns="http://www.w3.org/2000/svg">
<path d="M14 26.75C7.245 26.75 1.75 21.255 1.75 14.5C1.75 7.745 7.245 2.25 14 2.25C20.755 2.25 26.25 7.745 26.25 14.5C26.25 21.255 20.755 26.75 14 26.75ZM14 4C8.2075 4 3.5 8.7075 3.5 14.5C3.5 20.2925 8.2075 25 14 25C19.7925 25 24.5 20.2925 24.5 14.5C24.5 8.7075 19.7925 4 14 4Z" fill="#0054A1"/>
<path d="M17.5001 18.875C17.3426 18.875 17.1851 18.84 17.0451 18.7525L12.6701 16.1275C12.5405 16.0496 12.4335 15.9392 12.3598 15.8072C12.2862 15.6752 12.2483 15.5262 12.2501 15.375V8.375C12.2501 7.885 12.6351 7.5 13.1251 7.5C13.6151 7.5 14.0001 7.885 14.0001 8.375V14.885L17.9551 17.2475C18.118 17.3473 18.2439 17.4976 18.3137 17.6754C18.3835 17.8533 18.3935 18.049 18.342 18.233C18.2906 18.4171 18.1806 18.5793 18.0286 18.6951C17.8767 18.811 17.6911 18.8741 17.5001 18.875Z" fill="#0054A1"/>
</svg>
