<svg width="24" height="24" viewBox="0 0 24 24" fill="none" xmlns="http://www.w3.org/2000/svg">
<path d="M12.0763 1C7.70333 1 4 4.72433 4 9.13633C4 13.7563 8.29233 18.481 11.1797 21.8017C11.1907 21.815 11.6574 22.3333 12.2323 22.3333H12.2834C12.8584 22.3333 13.3217 21.815 13.3333 21.8017C16.043 18.6867 20 13.5507 20 9.13633C20 4.72433 17.1113 1 12.0763 1ZM12.3437 20.9073C12.3203 20.9307 12.2863 20.9567 12.2563 20.9784C12.2256 20.9574 12.1923 20.9307 12.1677 20.9074L11.819 20.5064C9.08167 17.366 5.33333 13.0657 5.33333 9.13633C5.33333 5.44867 8.42133 2.333 12.0763 2.333C16.629 2.333 18.6667 5.74967 18.6667 9.13633C18.6667 12.1193 16.539 16.08 12.3437 20.9073ZM12.0233 5.037C9.81431 5.037 8.02331 6.828 8.02331 9.037C8.02331 11.246 9.81431 13.037 12.0233 13.037C14.2323 13.037 16.0233 11.246 16.0233 9.037C16.0233 6.828 14.2323 5.037 12.0233 5.037ZM12.0233 11.7037C10.553 11.7037 9.32596 10.4783 9.32596 9.00767C9.32596 7.53733 10.5223 6.341 11.9926 6.341C13.464 6.341 14.6593 7.53733 14.6593 9.00767C14.66 10.4783 13.4946 11.7037 12.0233 11.7037Z" fill="black"/>
</svg>
