<svg width="24" height="24" viewBox="0 0 24 24" fill="none" xmlns="http://www.w3.org/2000/svg">
<path d="M15.4615 16.8462V19.6154C15.4615 19.9826 15.3157 20.3348 15.056 20.5945C14.7963 20.8541 14.4441 21 14.0769 21H4.38462C4.01739 21 3.66521 20.8541 3.40554 20.5945C3.14588 20.3348 3 19.9826 3 19.6154V4.38462C3 4.01739 3.14588 3.66521 3.40554 3.40554C3.66521 3.14588 4.01739 3 4.38462 3H14.0769C14.4441 3 14.7963 3.14588 15.056 3.40554C15.3157 3.66521 15.4615 4.01739 15.4615 4.38462V7.15385M11.3077 12H21M21 12L18.2308 9.23077M21 12L18.2308 14.7692" stroke="black" stroke-width="1.5" stroke-linecap="round" stroke-linejoin="round"/>
</svg>
