<svg width="59" height="54" viewBox="0 0 59 54" fill="none" xmlns="http://www.w3.org/2000/svg">
<path d="M59 0H0V45.3445H16.0936V40.0099H5.36632L5.36364 5.33465H53.6364V40.0099H42.9091V45.3445H59V0Z" fill="#0066C3"/>
<path d="M40.8763 47.5557L29.5 36.2409L18.1264 47.5611L11.6391 54H19.2367L29.5 43.7895L39.7687 53.9973H47.3663L40.8763 47.5557Z" fill="#0066C3"/>
<path d="M10.7133 19.7595C10.8236 19.8571 10.9707 19.9059 11.1546 19.9059C11.3385 19.9059 11.4857 19.8571 11.596 19.7595C11.7125 19.6559 11.7707 19.5218 11.7707 19.3572V15.5894C11.7707 15.126 11.8565 14.7937 12.0281 14.5926C12.1998 14.3853 12.4818 14.2816 12.8741 14.2816C13.2235 14.2816 13.4963 14.3975 13.6924 14.6291C13.8886 14.8608 13.9866 15.1809 13.9866 15.5894V19.3572C13.9866 19.5279 14.0387 19.662 14.143 19.7595C14.2533 19.8571 14.4004 19.9059 14.5843 19.9059C14.7682 19.9059 14.9153 19.8571 15.0257 19.7595C15.136 19.662 15.1912 19.5279 15.1912 19.3572V15.5894C15.1912 15.1687 15.2862 14.8456 15.4762 14.62C15.6724 14.3944 15.9482 14.2816 16.3037 14.2816C16.696 14.2816 16.978 14.3853 17.1497 14.5926C17.3213 14.7937 17.4071 15.126 17.4071 15.5894V19.3572C17.4071 19.5279 17.4623 19.662 17.5726 19.7595C17.683 19.8571 17.8301 19.9059 18.014 19.9059C18.1979 19.9059 18.345 19.8571 18.4553 19.7595C18.5718 19.6559 18.63 19.5218 18.63 19.3572V15.5894C18.63 14.8821 18.4277 14.3273 18.0232 13.925C17.6186 13.5226 17.0608 13.3214 16.3497 13.3214C15.9942 13.3214 15.6632 13.4037 15.3567 13.5683C15.0563 13.7329 14.7988 13.9737 14.5843 14.2908C14.3636 13.9798 14.1 13.7421 13.7935 13.5774C13.4932 13.4067 13.1714 13.3214 12.8281 13.3214C12.117 13.3214 11.5592 13.5226 11.1546 13.925C10.7501 14.3273 10.5478 14.8821 10.5478 15.5894V19.3572C10.5478 19.5279 10.603 19.662 10.7133 19.7595Z" fill="#0066C3"/>
<path fill-rule="evenodd" clip-rule="evenodd" d="M20.7927 19.6224C21.2096 19.8114 21.6846 19.9059 22.2179 19.9059C22.7512 19.9059 23.2232 19.8114 23.6339 19.6224C24.0508 19.4273 24.3756 19.1529 24.6086 18.7993C24.8415 18.4457 24.958 18.0372 24.958 17.5739C24.958 17.1105 24.8415 16.702 24.6086 16.3484C24.3756 15.9948 24.0508 15.7235 23.6339 15.5345C23.2232 15.3394 22.7512 15.2419 22.2179 15.2419C21.6846 15.2419 21.2096 15.3394 20.7927 15.5345C20.382 15.7235 20.0602 15.9948 19.8273 16.3484C19.5943 16.702 19.4779 17.1105 19.4779 17.5739C19.4779 18.0372 19.5943 18.4457 19.8273 18.7993C20.0602 19.1529 20.382 19.4273 20.7927 19.6224ZM23.3305 18.589C23.0608 18.8328 22.6899 18.9548 22.2179 18.9548C21.7459 18.9548 21.372 18.8328 21.0962 18.589C20.8264 18.3451 20.6916 18.0067 20.6916 17.5739C20.6916 17.141 20.8264 16.8026 21.0962 16.5588C21.372 16.3149 21.7459 16.1929 22.2179 16.1929C22.6899 16.1929 23.0608 16.3149 23.3305 16.5588C23.6063 16.8026 23.7443 17.141 23.7443 17.5739C23.7443 18.0067 23.6063 18.3451 23.3305 18.589Z" fill="#0066C3"/>
<path fill-rule="evenodd" clip-rule="evenodd" d="M26.7967 19.6315C27.1706 19.8144 27.5966 19.9059 28.0747 19.9059C28.8042 19.9059 29.3743 19.662 29.785 19.1743V19.3572C29.785 19.5279 29.8401 19.662 29.9505 19.7595C30.0608 19.8571 30.2079 19.9059 30.3918 19.9059C30.5757 19.9059 30.7198 19.8601 30.824 19.7687C30.9343 19.6711 30.9895 19.534 30.9895 19.3572V13.422C30.9895 13.2452 30.9343 13.111 30.824 13.0196C30.7198 12.922 30.5757 12.8733 30.3918 12.8733C30.2079 12.8733 30.0608 12.922 29.9505 13.0196C29.8401 13.1171 29.785 13.2513 29.785 13.422L29.7758 15.9552C29.549 15.7174 29.3068 15.5406 29.0494 15.4248C28.7919 15.3028 28.4762 15.2419 28.1023 15.2419C27.5935 15.2419 27.1522 15.3364 26.7783 15.5254C26.4043 15.7144 26.1162 15.9857 25.914 16.3393C25.7178 16.6868 25.6197 17.0983 25.6197 17.5739C25.6197 18.0494 25.7239 18.464 25.9323 18.8176C26.1408 19.1712 26.4289 19.4425 26.7967 19.6315ZM29.3804 18.589C29.1107 18.8328 28.7368 18.9548 28.2586 18.9548C27.8111 18.9548 27.4617 18.8328 27.2104 18.589C26.9591 18.3451 26.8334 18.0067 26.8334 17.5739C26.8334 17.141 26.9591 16.8026 27.2104 16.5588C27.4617 16.3149 27.8111 16.1929 28.2586 16.1929C28.7368 16.1929 29.1107 16.3149 29.3804 16.5588C29.6501 16.8026 29.785 17.141 29.785 17.5739C29.785 18.0067 29.6501 18.3451 29.3804 18.589Z" fill="#0066C3"/>
<path fill-rule="evenodd" clip-rule="evenodd" d="M32.9665 19.6224C33.3588 19.8114 33.8186 19.9059 34.3457 19.9059C34.738 19.9059 35.1058 19.854 35.4491 19.7504C35.7924 19.6468 36.0927 19.4974 36.3502 19.3023C36.4728 19.2169 36.5341 19.1011 36.5341 18.9548C36.5341 18.8328 36.482 18.7201 36.3778 18.6164C36.2797 18.5189 36.1786 18.4701 36.0744 18.4701C35.964 18.4701 35.8108 18.5311 35.6146 18.653C35.2652 18.8725 34.8423 18.9822 34.3457 18.9822C33.8737 18.9822 33.5151 18.8969 33.2699 18.7261C33.0309 18.5493 32.9113 18.2902 32.9113 17.9488H35.679C36.0223 17.9488 36.2858 17.8696 36.4697 17.711C36.6598 17.5525 36.7548 17.3269 36.7548 17.0343C36.7548 16.6868 36.6475 16.3789 36.433 16.1106C36.2245 15.8363 35.9303 15.6229 35.5503 15.4705C35.1763 15.3181 34.7442 15.2419 34.2538 15.2419C33.4569 15.2419 32.8378 15.4491 32.3964 15.8637C31.9612 16.2783 31.7436 16.8605 31.7436 17.6104C31.7436 18.0738 31.8478 18.4792 32.0562 18.8267C32.2708 19.1682 32.5742 19.4334 32.9665 19.6224ZM35.5319 17.0526C35.489 17.0892 35.4154 17.1075 35.3112 17.1075H32.9297C32.9297 16.8209 33.0462 16.5923 33.2791 16.4216C33.5182 16.2509 33.8431 16.1655 34.2538 16.1655C34.6645 16.1655 34.9894 16.2265 35.2284 16.3484C35.4736 16.4704 35.5962 16.638 35.5962 16.8514C35.5962 16.9429 35.5748 17.0099 35.5319 17.0526Z" fill="#0066C3"/>
<path d="M37.6668 19.7595C37.771 19.8571 37.9181 19.9059 38.1081 19.9059C38.292 19.9059 38.4391 19.8571 38.5495 19.7595C38.6598 19.662 38.715 19.5279 38.715 19.3572V17.7385C38.715 17.2873 38.8345 16.9337 39.0736 16.6776C39.3188 16.4155 39.6467 16.2844 40.0574 16.2844H40.3701C40.5662 16.2844 40.7164 16.2448 40.8206 16.1655C40.9309 16.0802 40.9861 15.9613 40.9861 15.8089C40.9861 15.6564 40.9309 15.5406 40.8206 15.4613C40.7164 15.376 40.5662 15.3333 40.3701 15.3333H40.1678C39.8735 15.3333 39.5977 15.4004 39.3402 15.5345C39.0889 15.6625 38.8682 15.8485 38.6782 16.0924V15.7906C38.6782 15.6199 38.6261 15.4857 38.5219 15.3882C38.4177 15.2906 38.2736 15.2419 38.0897 15.2419C37.9059 15.2419 37.7618 15.2906 37.6576 15.3882C37.5595 15.4796 37.5105 15.6138 37.5105 15.7906V19.3572C37.5105 19.5279 37.5626 19.662 37.6668 19.7595Z" fill="#0066C3"/>
<path d="M41.7164 19.7595C41.8207 19.8571 41.9678 19.9059 42.1578 19.9059C42.3417 19.9059 42.4888 19.8571 42.5992 19.7595C42.7095 19.662 42.7647 19.5279 42.7647 19.3572V17.7385C42.7647 17.2507 42.8934 16.8727 43.1508 16.6045C43.4083 16.3301 43.77 16.1929 44.2358 16.1929C44.5423 16.1929 44.7814 16.2905 44.953 16.4856C45.1247 16.6807 45.2105 16.952 45.2105 17.2995V19.3572C45.2105 19.5279 45.2626 19.662 45.3668 19.7595C45.471 19.8571 45.6181 19.9059 45.8081 19.9059C45.992 19.9059 46.1391 19.8571 46.2495 19.7595C46.3598 19.662 46.415 19.5279 46.415 19.3572V17.2995C46.415 16.6654 46.2434 16.1655 45.9001 15.7997C45.5629 15.4278 45.1001 15.2419 44.5117 15.2419C43.7577 15.2419 43.1631 15.5132 42.7279 16.0558V15.7906C42.7279 15.6199 42.6758 15.4857 42.5716 15.3882C42.4674 15.2906 42.3233 15.2419 42.1394 15.2419C41.9555 15.2419 41.8115 15.2906 41.7073 15.3882C41.6092 15.4796 41.5601 15.6138 41.5601 15.7906V19.3572C41.5601 19.5279 41.6122 19.662 41.7164 19.7595Z" fill="#0066C3"/>
<path d="M17.8418 31.7625C17.9521 31.8601 18.0992 31.9088 18.2831 31.9088C18.467 31.9088 18.6141 31.8601 18.7245 31.7625C18.8409 31.6589 18.8992 31.5247 18.8992 31.3601V27.885C18.8992 27.3668 19.0402 26.9705 19.3221 26.6961C19.6041 26.4218 20.0148 26.2846 20.5542 26.2846C21.0937 26.2846 21.5044 26.4218 21.7863 26.6961C22.0683 26.9705 22.2093 27.3668 22.2093 27.885V31.3601C22.2093 31.5247 22.2645 31.6589 22.3748 31.7625C22.4913 31.8601 22.6415 31.9088 22.8254 31.9088C23.0093 31.9088 23.1564 31.8601 23.2667 31.7625C23.377 31.665 23.4322 31.5308 23.4322 31.3601V27.9124C23.4322 27.1015 23.1778 26.4675 22.6691 26.0102C22.1603 25.553 21.4553 25.3243 20.5542 25.3243C19.6532 25.3243 18.9482 25.553 18.4394 26.0102C17.9307 26.4675 17.6763 27.1015 17.6763 27.9124V31.3601C17.6763 31.5308 17.7314 31.665 17.8418 31.7625Z" fill="#0066C3"/>
<path fill-rule="evenodd" clip-rule="evenodd" d="M25.4508 31.6253C25.8431 31.8143 26.3029 31.9088 26.8301 31.9088C27.2224 31.9088 27.5902 31.857 27.9334 31.7534C28.2767 31.6497 28.5771 31.5003 28.8345 31.3053C28.9571 31.2199 29.0184 31.1041 29.0184 30.9577C29.0184 30.8358 28.9663 30.723 28.8621 30.6194C28.764 30.5218 28.6629 30.473 28.5587 30.473C28.4483 30.473 28.2951 30.534 28.0989 30.6559C27.7495 30.8754 27.3266 30.9852 26.8301 30.9852C26.3581 30.9852 25.9995 30.8998 25.7543 30.7291C25.5152 30.5523 25.3957 30.2932 25.3957 29.9518H28.1633C28.5066 29.9518 28.7702 29.8725 28.9541 29.714C29.1441 29.5555 29.2391 29.3299 29.2391 29.0373C29.2391 28.6898 29.1318 28.3819 28.9173 28.1136C28.7089 27.8393 28.4146 27.6259 28.0346 27.4735C27.6607 27.321 27.2285 27.2448 26.7381 27.2448C25.9412 27.2448 25.3221 27.4521 24.8808 27.8667C24.4455 28.2813 24.2279 28.8635 24.2279 29.6134C24.2279 30.0768 24.3321 30.4822 24.5406 30.8297C24.7551 31.1711 25.0585 31.4363 25.4508 31.6253ZM28.0162 29.0556C27.9733 29.0921 27.8997 29.1104 27.7955 29.1104H25.4141C25.4141 28.8239 25.5305 28.5953 25.7635 28.4245C26.0025 28.2538 26.3274 28.1685 26.7381 28.1685C27.1488 28.1685 27.4737 28.2294 27.7128 28.3514C27.958 28.4733 28.0806 28.641 28.0806 28.8544C28.0806 28.9458 28.0591 29.0129 28.0162 29.0556Z" fill="#0066C3"/>
<path d="M30.5557 30.7017C30.7396 31.5064 31.1717 31.9088 31.8521 31.9088C32.1893 31.9088 32.4498 31.8052 32.6337 31.5979C32.8176 31.3906 32.9402 31.0675 33.0015 30.6285L33.3049 28.3788C33.3111 28.3118 33.3233 28.266 33.3417 28.2416C33.3662 28.2112 33.3969 28.1959 33.4337 28.1959C33.4704 28.1959 33.498 28.2112 33.5164 28.2416C33.5409 28.266 33.5562 28.3118 33.5624 28.3788L33.8658 30.6285C33.9271 31.0675 34.0497 31.3906 34.2336 31.5979C34.4175 31.8052 34.678 31.9088 35.0152 31.9088C35.6956 31.9088 36.1277 31.5064 36.3116 30.7017L36.9461 27.8667C36.9583 27.7935 36.9645 27.7448 36.9645 27.7204C36.9645 27.568 36.9093 27.4521 36.799 27.3729C36.6947 27.2875 36.5446 27.2448 36.3484 27.2448C36.1522 27.2448 35.9929 27.2875 35.8703 27.3729C35.7477 27.4582 35.6741 27.5771 35.6496 27.7295L35.1439 30.7657C35.1255 30.8937 35.0826 30.9577 35.0152 30.9577C34.9416 30.9577 34.8956 30.8968 34.8772 30.7748L34.5278 28.2508C34.4788 27.9277 34.3593 27.6807 34.1692 27.51C33.9792 27.3332 33.734 27.2448 33.4337 27.2448C33.1333 27.2448 32.8881 27.3332 32.6981 27.51C32.508 27.6807 32.3885 27.9277 32.3395 28.2508L31.9901 30.7748C31.9717 30.8968 31.9257 30.9577 31.8521 30.9577C31.7847 30.9577 31.7418 30.8937 31.7234 30.7657L31.2177 27.7295C31.1932 27.5771 31.1196 27.4582 30.997 27.3729C30.8744 27.2875 30.7151 27.2448 30.5189 27.2448C30.3227 27.2448 30.1695 27.2875 30.0592 27.3729C29.955 27.4521 29.9028 27.568 29.9028 27.7204C29.9028 27.7448 29.909 27.7935 29.9212 27.8667L30.5557 30.7017Z" fill="#0066C3"/>
<path d="M37.5387 31.0583C38.0046 31.6253 38.731 31.9088 39.7179 31.9088C40.3615 31.9088 40.8611 31.793 41.2166 31.5613C41.5722 31.3235 41.7499 31.0126 41.7499 30.6285C41.7499 30.2688 41.6273 29.9792 41.3821 29.7597C41.1431 29.5402 40.7232 29.3391 40.1224 29.1562C39.7485 29.0403 39.4727 28.9489 39.2949 28.8818C39.1233 28.8147 39.0037 28.7507 38.9363 28.6898C38.8689 28.6288 38.8352 28.5587 38.8352 28.4794C38.8352 28.2782 39.0497 28.1776 39.4788 28.1776C39.7056 28.1776 39.914 28.2081 40.1041 28.2691C40.3002 28.33 40.4596 28.4184 40.5822 28.5343C40.7293 28.6806 40.8917 28.7538 41.0695 28.7538C41.1798 28.7538 41.2871 28.7202 41.3913 28.6532C41.5384 28.5617 41.612 28.4428 41.612 28.2965C41.612 28.1929 41.5722 28.0892 41.4925 27.9856C41.327 27.76 41.0634 27.5801 40.7017 27.446C40.3401 27.3119 39.9355 27.2448 39.488 27.2448C38.9057 27.2448 38.449 27.3546 38.118 27.574C37.787 27.7935 37.6215 28.0953 37.6215 28.4794C37.6215 28.8208 37.7624 29.1074 38.0444 29.3391C38.3264 29.5646 38.8045 29.7811 39.4788 29.9884C39.9079 30.1225 40.1929 30.2322 40.3339 30.3176C40.4749 30.4029 40.5454 30.5066 40.5454 30.6285C40.5454 30.7261 40.4596 30.8084 40.2879 30.8754C40.1163 30.9425 39.9048 30.976 39.6535 30.976C39.3593 30.976 39.111 30.9334 38.9087 30.848C38.7126 30.7565 38.5103 30.6072 38.3019 30.3999C38.1854 30.284 38.0597 30.2261 37.9249 30.2261C37.8268 30.2261 37.7257 30.2597 37.6215 30.3267C37.4682 30.4365 37.3916 30.5645 37.3916 30.7108C37.3916 30.8145 37.4406 30.9303 37.5387 31.0583Z" fill="#0066C3"/>
</svg>
