<svg width="28" height="29" viewBox="0 0 28 29" fill="none" xmlns="http://www.w3.org/2000/svg">
<g clip-path="url(#clip0_181_3173)">
<path d="M3.5 14.499H23.662M5.332 14.499L6.25 27.331M21.832 14.499L20.914 27.331M19.582 14.541C19.582 12.9497 18.9499 11.4236 17.8246 10.2984C16.6994 9.17313 15.1733 8.54099 13.582 8.54099C11.9907 8.54099 10.4646 9.17313 9.33936 10.2984C8.21414 11.4236 7.582 12.9497 7.582 14.541M13.582 8.08099C14.0125 8.0962 14.4417 8.02454 14.844 7.87027C15.2462 7.716 15.6133 7.48229 15.9233 7.18309C16.2332 6.88388 16.4797 6.52531 16.6481 6.12876C16.8165 5.73221 16.9033 5.30581 16.9033 4.87499C16.9033 4.44418 16.8165 4.01778 16.6481 3.62123C16.4797 3.22468 16.2332 2.8661 15.9233 2.5669C15.6133 2.26769 15.2462 2.03398 14.844 1.87972C14.4417 1.72545 14.0125 1.65378 13.582 1.66899C12.7513 1.69834 11.9644 2.04896 11.3872 2.647C10.8099 3.24503 10.4873 4.04379 10.4873 4.87499C10.4873 5.7062 10.8099 6.50495 11.3872 7.10299C11.9644 7.70102 12.7513 8.05165 13.582 8.08099ZM13.582 17.721L14.762 20.111L17.398 20.495L15.49 22.355L15.94 24.981L13.582 23.741L11.222 24.981L11.674 22.355L9.766 20.495L12.402 20.111L13.582 17.721Z" stroke="#0054A1" stroke-width="1.5" stroke-linecap="round" stroke-linejoin="round"/>
</g>
<defs>
<clipPath id="clip0_181_3173">
<rect width="28" height="28" fill="white" transform="translate(0 0.5)"/>
</clipPath>
</defs>
</svg>
