<svg width="28" height="29" viewBox="0 0 28 29" fill="none" xmlns="http://www.w3.org/2000/svg">
<path d="M8.49023 16.5096L11.9902 20.0096L10.7598 21.24L7.25977 17.74L8.49023 16.5096ZM16.625 0.499785C17.6732 0.499785 18.6803 0.631947 19.6465 0.89627C20.6126 1.16059 21.5195 1.5434 22.3672 2.04471C23.2148 2.54601 23.9805 3.13846 24.6641 3.82205C25.3477 4.50565 25.9401 5.27127 26.4414 6.11893C26.9427 6.96658 27.3255 7.87348 27.5898 8.83963C27.8542 9.80578 27.9909 10.8175 28 11.8748C28 13.2055 27.7812 14.477 27.3438 15.6892C26.9062 16.9015 26.2956 17.9998 25.5117 18.9842C24.7279 19.9685 23.7891 20.8071 22.6953 21.4998C21.6016 22.1925 20.4121 22.6847 19.127 22.9763C19.209 23.6508 19.25 24.3253 19.25 24.9998C19.25 25.4829 19.1589 25.934 18.9766 26.3533C18.7943 26.7726 18.5436 27.1463 18.2246 27.4744C17.9056 27.8025 17.5365 28.0532 17.1172 28.2264C16.6979 28.3995 16.2422 28.4907 15.75 28.4998C14.3008 28.4998 12.9062 28.3129 11.5664 27.9392C10.2266 27.5655 8.96875 27.0369 7.79297 26.3533C6.61719 25.6697 5.55534 24.8494 4.60742 23.8924C3.65951 22.9353 2.83919 21.8735 2.14648 20.7068C1.45378 19.5402 0.92513 18.2869 0.560547 16.9471C0.195964 15.6072 0.00911458 14.2081 0 12.7498C0 12.2667 0.0911458 11.8155 0.273438 11.3963C0.455729 10.977 0.70638 10.6033 1.02539 10.2752C1.3444 9.94705 1.71354 9.6964 2.13281 9.52322C2.55208 9.35005 3.00781 9.2589 3.5 9.24979C4.17448 9.24979 4.84896 9.2908 5.52344 9.37283C5.8151 8.07856 6.30729 6.88911 7 5.80447C7.69271 4.71984 8.53125 3.78559 9.51562 3.00174C10.5 2.21788 11.5983 1.60265 12.8105 1.15604C14.0228 0.709421 15.2943 0.490671 16.625 0.499785ZM21.4648 8.27908C21.9023 8.59809 22.3809 8.83963 22.9004 9.00369C23.4199 9.16776 23.9531 9.24979 24.5 9.24979C24.9557 9.24979 25.4023 9.1951 25.8398 9.08572C25.6576 8.46593 25.4115 7.87348 25.1016 7.30838C24.7917 6.74328 24.4316 6.21463 24.0215 5.72244L21.4648 8.27908ZM22.7773 4.4783C22.2852 4.06814 21.7565 3.70812 21.1914 3.39822C20.6263 3.08833 20.0339 2.84223 19.4141 2.65994C19.3047 3.09744 19.25 3.54406 19.25 3.99979C19.25 4.54666 19.332 5.07986 19.4961 5.59939C19.6602 6.11893 19.9017 6.59744 20.2207 7.03494L22.7773 4.4783ZM17.7051 2.31814C17.5228 2.2908 17.3451 2.27257 17.1719 2.26346C16.9987 2.25434 16.8164 2.24979 16.625 2.24979C15.4948 2.24979 14.4056 2.44119 13.3574 2.824C12.3092 3.20682 11.3477 3.76281 10.4727 4.49197L16.625 10.6443L18.9766 8.29276C18.4935 7.68208 18.1289 7.01216 17.8828 6.28299C17.6367 5.55382 17.5091 4.79275 17.5 3.99979C17.5 3.42557 17.5684 2.86502 17.7051 2.31814ZM9.22852 5.72244C8.74544 6.29666 8.33529 6.91645 7.99805 7.58182C7.66081 8.24718 7.41016 8.95356 7.24609 9.70096C8.49479 9.99263 9.69336 10.4438 10.8418 11.0545C11.9902 11.6652 13.043 12.3989 14 13.2556L15.3945 11.8748L9.22852 5.72244ZM15.75 26.7498C15.9961 26.7498 16.224 26.7042 16.4336 26.6131C16.6432 26.5219 16.8255 26.3989 16.9805 26.2439C17.1354 26.089 17.263 25.9021 17.3633 25.6834C17.4635 25.4646 17.5091 25.2368 17.5 24.9998C17.5 23.7146 17.3359 22.475 17.0078 21.281C16.6797 20.087 16.2057 18.975 15.5859 17.9451C14.9661 16.9152 14.237 15.9718 13.3984 15.115C12.5599 14.2583 11.6165 13.5245 10.5684 12.9138C9.52018 12.3032 8.40365 11.8338 7.21875 11.5056C6.03385 11.1775 4.79427 11.0089 3.5 10.9998C3.25391 10.9998 3.02604 11.0454 2.81641 11.1365C2.60677 11.2277 2.42448 11.3507 2.26953 11.5056C2.11458 11.6606 1.98698 11.8474 1.88672 12.0662C1.78646 12.2849 1.74089 12.5128 1.75 12.7498C1.75 14.0349 1.91406 15.2745 2.24219 16.4685C2.57031 17.6625 3.04427 18.7745 3.66406 19.8045C4.28385 20.8344 5.01302 21.7778 5.85156 22.6346C6.6901 23.4913 7.63346 24.225 8.68164 24.8357C9.72982 25.4464 10.8464 25.9158 12.0312 26.2439C13.2161 26.5721 14.4557 26.7407 15.75 26.7498ZM15.2441 14.4998C16.1009 15.4568 16.8346 16.5096 17.4453 17.658C18.056 18.8064 18.5072 20.005 18.7988 21.2537C19.5371 21.0896 20.2389 20.839 20.9043 20.5017C21.5697 20.1645 22.194 19.7543 22.7773 19.2713L16.625 13.1053L15.2441 14.4998ZM24.0078 18.0271C24.7279 17.1612 25.2793 16.2042 25.6621 15.156C26.0449 14.1079 26.2409 13.0141 26.25 11.8748C26.25 11.6925 26.2454 11.5148 26.2363 11.3416C26.2272 11.1684 26.209 10.9861 26.1816 10.7947C25.6348 10.9314 25.0742 10.9998 24.5 10.9998C23.7161 10.9998 22.9596 10.8767 22.2305 10.6306C21.5013 10.3846 20.8268 10.0154 20.207 9.52322L17.8555 11.8748L24.0078 18.0271Z" fill="#0066C3"/>
</svg>
