<svg width="29" height="29" viewBox="0 0 29 29" fill="none" xmlns="http://www.w3.org/2000/svg">
<path d="M15.8435 7.5L24.6775 7.5035L24.828 7.52975L24.9382 7.56475L25.0397 7.61725L25.1482 7.69075L25.2497 7.78525L25.3197 7.87275L25.381 7.97425L25.437 8.11075L25.458 8.186L25.4772 8.3365V17.125C25.4754 17.342 25.3929 17.5506 25.2458 17.7103C25.0987 17.8699 24.8976 17.9692 24.6814 17.9888C24.4653 18.0084 24.2495 17.947 24.0761 17.8165C23.9027 17.686 23.784 17.4957 23.743 17.2825L23.729 17.125L23.7255 10.4872L14.7252 19.4945C14.5805 19.6395 14.3894 19.729 14.1854 19.7475C13.9814 19.7661 13.7773 19.7125 13.6087 19.596L13.488 19.4945L10.6005 16.6123L5.96825 21.2445C5.81392 21.3995 5.60712 21.4911 5.3886 21.5012C5.17009 21.5113 4.95572 21.4392 4.78773 21.2991C4.61974 21.159 4.51031 20.9611 4.48103 20.7443C4.45174 20.5275 4.50471 20.3077 4.6295 20.128L4.72925 20.0055L9.97925 14.7555C10.124 14.6106 10.3151 14.521 10.5191 14.5025C10.7231 14.4839 10.9272 14.5375 11.0957 14.654L11.2182 14.7555L14.1057 17.6378L18.297 13.4439L22.4882 9.25H15.8435C15.6387 9.25007 15.4404 9.1783 15.283 9.04719C15.1257 8.91609 15.0194 8.73395 14.9825 8.5325L14.9685 8.375C14.9685 8.14294 15.0607 7.92038 15.2248 7.75628C15.3889 7.59219 15.6114 7.5 15.8435 7.5Z" fill="#0054A1"/>
</svg>
