<svg width="22" height="21" viewBox="0 0 22 21" fill="none" xmlns="http://www.w3.org/2000/svg">
<g clip-path="url(#clip0_181_3176)">
<path d="M1.95972 3.9375H20.991C21.252 3.9375 21.5024 4.04121 21.687 4.22582C21.8716 4.41042 21.9753 4.6608 21.9753 4.92188C21.9753 5.18295 21.8716 5.43333 21.687 5.61793C21.5024 5.80254 21.252 5.90625 20.991 5.90625H1.95972C1.69864 5.90625 1.44826 5.80254 1.26366 5.61793C1.07905 5.43333 0.975342 5.18295 0.975342 4.92188C0.975342 4.6608 1.07905 4.41042 1.26366 4.22582C1.44826 4.04121 1.69864 3.9375 1.95972 3.9375ZM4.91284 10.1719C4.91284 9.9108 5.01655 9.66042 5.20116 9.47582C5.38576 9.29121 5.63614 9.1875 5.89722 9.1875H17.0535C17.3145 9.1875 17.5649 9.29121 17.7495 9.47582C17.9341 9.66042 18.0378 9.9108 18.0378 10.1719C18.0378 10.4329 17.9341 10.6833 17.7495 10.8679C17.5649 11.0525 17.3145 11.1562 17.0535 11.1562H5.89722C5.63614 11.1562 5.38576 11.0525 5.20116 10.8679C5.01655 10.6833 4.91284 10.4329 4.91284 10.1719ZM8.85034 15.4219C8.85034 15.1608 8.95405 14.9104 9.13866 14.7258C9.32326 14.5412 9.57364 14.4375 9.83472 14.4375H13.116C13.377 14.4375 13.6274 14.5412 13.812 14.7258C13.9966 14.9104 14.1003 15.1608 14.1003 15.4219C14.1003 15.6829 13.9966 15.9333 13.812 16.1179C13.6274 16.3025 13.377 16.4062 13.116 16.4062H9.83472C9.57364 16.4062 9.32326 16.3025 9.13866 16.1179C8.95405 15.9333 8.85034 15.6829 8.85034 15.4219Z" fill="#0054A1"/>
</g>
<defs>
<clipPath id="clip0_181_3176">
<rect width="21" height="21" fill="white" transform="translate(0.975342)"/>
</clipPath>
</defs>
</svg>
